<svg width="149" height="32" viewBox="0 0 149 32" fill="none" xmlns="http://www.w3.org/2000/svg">
<path d="M20.8894 8.79911e-05C20.963 0.005411 21.0031 0.0447098 21.0474 0.071591C22.2003 0.770457 23.352 1.4715 24.5063 2.16793C24.5999 2.22439 24.6367 2.28401 24.6368 2.39894C24.641 7.18801 24.6492 11.977 24.6559 16.7661C24.6594 19.3147 24.6599 21.8634 24.667 24.4121C24.6674 24.5508 24.6289 24.6246 24.5113 24.6946C21.2485 26.6357 17.9854 28.5762 14.7297 30.5298C13.938 31.0049 13.1435 31.4754 12.3574 31.9602C12.2661 32.0164 12.2021 32.0108 12.1143 31.9576C11.416 31.5345 10.7121 31.1214 10.0152 30.6961C6.7553 28.7067 3.46657 26.7687 0.196203 24.7981C0.163999 24.7787 0.133658 24.7544 0.0993242 24.7407C0.0157086 24.7076 -0.000349176 24.6458 5.69156e-06 24.5588C0.0101194 22.0268 0.0187693 19.4947 0.0256005 16.9625C0.0307461 15.0524 0.0330527 13.1423 0.0366457 11.2322C0.0366901 11.1992 0.0394403 11.1658 0.0362022 11.1331C0.0203662 10.9739 0.0803388 10.8758 0.22131 10.7922C1.33905 10.1295 2.45152 9.4572 3.56611 8.78876C3.61522 8.75931 3.65957 8.71686 3.74177 8.70839C3.74177 8.77009 3.74173 8.82763 3.74177 8.8852C3.74496 12.0449 3.7482 15.2046 3.7514 18.3643C3.75304 19.9826 3.75596 21.601 3.75335 23.2194C3.75317 23.34 3.79114 23.404 3.8905 23.4634C6.64294 25.1073 9.39392 26.7538 12.1431 28.4035C12.2432 28.4636 12.3141 28.4664 12.4157 28.4065C15.1727 26.782 17.9314 25.1608 20.6917 23.5423C20.7868 23.4865 20.8232 23.4281 20.8234 23.3133C20.8257 21.2711 20.8327 19.229 20.8388 17.1867C20.8556 11.506 20.8725 5.82523 20.8894 0.144475C20.8895 0.100516 20.8894 0.0566449 20.8894 8.79911e-05Z" fill="url(#paint0_linear_32_308)"/>
<path d="M19.1543 28.7726C19.1852 28.7319 19.2314 28.7143 19.2725 28.6898C20.4031 28.0171 21.5345 27.3459 22.6635 26.6704C22.753 26.6168 22.81 26.6147 22.9029 26.6754C23.2898 26.9284 23.6873 27.1638 24.0774 27.4116C24.1489 27.4571 24.1952 27.429 24.2512 27.395C24.7796 27.0751 25.3084 26.7558 25.8369 26.4363C28.08 25.0806 30.3227 23.7241 32.5677 22.3715C32.6763 22.3061 32.7203 22.238 32.7198 22.1035C32.705 17.7055 32.6948 13.3074 32.6839 8.90932C32.6837 8.8403 32.6839 8.77128 32.6839 8.69955C32.7544 8.69773 32.7898 8.73522 32.8292 8.75886C33.9847 9.45303 35.139 10.1494 36.2961 10.8407C36.3869 10.8949 36.4195 10.9512 36.4194 11.0599C36.414 15.5515 36.4113 20.0432 36.413 24.5348C36.413 24.6577 36.3605 24.7072 36.2723 24.7596C33.0463 26.6781 29.8185 28.5933 26.5981 30.5216C25.8521 30.9683 25.1044 31.4124 24.3628 31.8669C24.2767 31.9196 24.2177 31.9158 24.1344 31.864C23.5183 31.4811 22.8934 31.1132 22.282 30.7226C21.2811 30.0833 20.2605 29.4782 19.2525 28.8512C19.2173 28.8292 19.1742 28.8162 19.1543 28.7726Z" fill="url(#paint1_linear_32_308)"/>
<path d="M18.3954 24.0863C18.3545 24.1128 18.3151 24.1399 18.2744 24.1645C17.176 24.8283 16.0766 25.4903 14.9803 26.1577C14.8805 26.2184 14.8089 26.2204 14.7083 26.1589C13.7962 25.6018 12.8817 25.049 11.9646 24.5009C11.8668 24.4424 11.8391 24.3776 11.8394 24.267C11.8539 18.3564 11.8656 12.4458 11.8782 6.53518C11.881 5.21991 11.8914 3.9046 11.8843 2.58937C11.8833 2.40169 11.9321 2.30836 12.0882 2.21343C13.2217 1.52446 14.3478 0.822622 15.4769 0.125886C15.5213 0.0985165 15.561 0.0584139 15.626 0.0538006C15.6538 0.0960297 15.6403 0.1462 15.6403 0.191933C15.6404 3.22982 15.6396 6.26775 15.6392 9.30563C15.6387 12.8774 15.6384 16.4491 15.638 20.0208C15.6379 20.7582 15.6402 21.4958 15.6342 22.2332C15.6333 22.3539 15.6722 22.4168 15.7721 22.4766C16.6015 22.9729 17.4273 23.4753 18.2534 23.9772C18.3024 24.007 18.3626 24.0238 18.3954 24.0863Z" fill="url(#paint2_linear_32_308)"/>
<path d="M46.7599 14.4311C46.9114 13.7411 47.0648 13.0514 47.2142 12.3608C47.4345 11.3429 47.6523 10.3244 47.8705 9.30607C47.954 8.9166 47.8714 8.78064 47.4945 8.68186C47.4576 8.67219 47.4184 8.66971 47.3829 8.65675C47.3382 8.64043 47.3416 8.59744 47.3464 8.56089C47.3499 8.53454 47.357 8.50349 47.3941 8.50052C47.432 8.49746 47.47 8.49258 47.508 8.49258C48.2354 8.49209 48.9627 8.49218 49.6901 8.49227C49.7188 8.49227 49.7475 8.4936 49.7762 8.49396C49.8312 8.49462 49.8651 8.51715 49.8679 8.57668C49.8707 8.63488 49.8444 8.66238 49.7865 8.66833C49.7105 8.67614 49.6349 8.68811 49.5593 8.69951C49.3922 8.72471 49.3111 8.83179 49.2923 8.99086C49.2753 9.13449 49.289 9.2771 49.3205 9.4183C49.6785 11.0222 50.036 12.6262 50.394 14.23C50.4102 14.3026 50.4187 14.3789 50.4888 14.4464C50.647 13.6791 50.8037 12.9217 50.9592 12.1641C51.1417 11.2749 51.3233 10.3854 51.5049 9.49605C51.5202 9.42118 51.5397 9.3463 51.5454 9.27049C51.5686 8.96557 51.4333 8.78055 51.1373 8.70497C51.1003 8.69552 51.0624 8.68918 51.0253 8.67964C50.9579 8.66229 50.8492 8.68736 50.8691 8.56648C50.8874 8.45567 50.9887 8.49396 51.0575 8.49369C51.67 8.49108 52.2825 8.49209 52.8951 8.49227C52.9333 8.49227 52.9717 8.49249 53.0098 8.49608C53.0544 8.5003 53.0743 8.52926 53.0757 8.57234C53.0769 8.61155 53.0743 8.64956 53.027 8.66154C52.9807 8.67325 52.9342 8.68492 52.8873 8.69317C52.5555 8.75146 52.368 8.96336 52.2866 9.27488C52.2046 9.58903 52.1339 9.90628 52.0623 10.223C51.7273 11.7047 51.3966 13.1874 51.0569 14.6681C50.9908 14.9564 50.9545 15.2192 51.2591 15.3982C51.2935 15.4183 51.3035 15.46 51.2956 15.4997C51.2827 15.5634 51.2282 15.5582 51.1831 15.5582C50.5322 15.5591 49.8815 15.559 49.2306 15.5579C49.1948 15.5579 49.1521 15.5625 49.1334 15.519C49.109 15.4623 49.1399 15.4268 49.1881 15.4077C49.3646 15.3379 49.3418 15.1904 49.3382 15.0452C49.3227 14.4275 49.1467 13.8394 49.0115 13.2438C48.817 12.3866 48.6204 11.5299 48.4237 10.6732C48.4111 10.6184 48.3902 10.5655 48.3583 10.465C48.3207 10.5713 48.2916 10.6337 48.2764 10.6992C47.9535 12.0955 47.6319 13.492 47.3115 14.8887C47.2945 14.9629 47.2839 15.0395 47.2807 15.1155C47.2754 15.2398 47.3174 15.3391 47.4443 15.3891C47.5001 15.411 47.5978 15.4108 47.566 15.5086C47.5392 15.5911 47.4531 15.5572 47.3924 15.5578C47.0861 15.5608 46.7799 15.5593 46.4736 15.5592C46.1195 15.5592 45.7653 15.5599 45.4112 15.5578C45.3678 15.5576 45.3106 15.5694 45.2949 15.5051C45.2796 15.4423 45.3265 15.421 45.3719 15.4068C45.6153 15.3304 45.6013 15.1324 45.5959 14.938C45.5834 14.4858 45.4735 14.0493 45.3785 13.6107C45.0791 12.2287 44.7772 10.8472 44.4755 9.46567C44.4511 9.35371 44.4238 9.24219 44.3925 9.13196C44.3249 8.89349 44.1901 8.72236 43.9285 8.68274C43.9002 8.67849 43.8723 8.67126 43.8447 8.66358C43.8009 8.65138 43.7886 8.61922 43.7912 8.57713C43.7938 8.53605 43.8068 8.50185 43.8526 8.49728C43.9 8.49253 43.948 8.49227 43.9958 8.49222C44.6371 8.49191 45.2783 8.49201 45.9195 8.4921C45.9578 8.4921 45.9961 8.49249 46.0344 8.49329C46.0844 8.4944 46.1296 8.50154 46.1345 8.56622C46.1385 8.61994 46.125 8.65831 46.0645 8.66926C46.0176 8.67778 45.9714 8.69086 45.9252 8.70333C45.7225 8.75807 45.6252 8.89842 45.6143 9.10069C45.6061 9.25359 45.6203 9.40441 45.6534 9.55607C45.9913 11.1058 46.3248 12.6564 46.6604 14.2066C46.6763 14.2803 46.6991 14.3525 46.7188 14.4254L46.7599 14.4311Z" fill="url(#paint3_linear_32_308)"/>
<path d="M102.787 11.4001C102.871 11.3597 102.895 11.2824 102.934 11.2185C103.322 10.5823 103.711 9.94578 104.097 9.308C104.151 9.21857 104.201 9.1251 104.238 9.02774C104.288 8.89843 104.272 8.78146 104.127 8.71666C104.118 8.71275 104.109 8.70929 104.1 8.70654C104.019 8.68227 104 8.62239 104.02 8.54973C104.04 8.47255 104.109 8.49362 104.162 8.49335C104.496 8.49158 104.831 8.49238 105.166 8.49238C105.616 8.49238 106.066 8.49007 106.515 8.49468C106.588 8.49543 106.702 8.44367 106.712 8.58619C106.72 8.69407 106.633 8.69421 106.56 8.71829C106.149 8.85456 106.032 8.99717 106.031 9.4267C106.025 11.168 106.028 12.9094 106.029 14.6508C106.029 14.7556 106.04 14.8596 106.068 14.9629C106.134 15.207 106.274 15.3676 106.532 15.4105C106.583 15.4189 106.622 15.4429 106.61 15.505C106.6 15.5529 106.562 15.5572 106.523 15.5579C106.466 15.559 106.408 15.5591 106.351 15.5591C105.662 15.5592 104.973 15.5592 104.284 15.5591C104.217 15.5591 104.15 15.5609 104.084 15.556C104.058 15.5542 104.028 15.547 104.02 15.51C104.011 15.4676 104.021 15.4289 104.055 15.4104C104.096 15.3879 104.145 15.3825 104.19 15.3657C104.595 15.2131 104.767 14.9767 104.768 14.5413C104.771 13.4601 104.769 12.3789 104.769 11.2977C104.769 10.781 104.769 10.2644 104.769 9.74772V9.52903C104.75 9.52269 104.73 9.51639 104.71 9.51004C103.976 10.676 103.242 11.8418 102.482 13.0486C101.776 11.8654 101.116 10.6879 100.427 9.52939C100.332 9.58311 100.361 9.65696 100.361 9.71795C100.36 11.3254 100.359 12.9328 100.361 14.5402C100.361 15.037 100.471 15.1967 100.927 15.3849C100.981 15.407 101.044 15.4221 101.033 15.4955C101.021 15.5754 100.949 15.558 100.897 15.5582C100.256 15.5594 99.6145 15.5592 98.9735 15.5582C98.929 15.5581 98.8719 15.5697 98.8581 15.5054C98.8436 15.4372 98.8804 15.3986 98.9439 15.3811C98.9715 15.3734 98.9999 15.3674 99.0265 15.3571C99.4328 15.2014 99.5198 15.0867 99.5205 14.6569C99.5232 12.9825 99.5222 11.3081 99.5202 9.63367C99.5201 9.5194 99.5076 9.40421 99.4899 9.29118C99.45 9.03732 99.3316 8.84303 99.068 8.76589C99.0132 8.74988 98.9602 8.72659 98.908 8.70304C98.8414 8.67301 98.8481 8.61152 98.8554 8.55558C98.8637 8.49242 98.9169 8.4934 98.9642 8.49327C99.1842 8.49247 99.4043 8.49251 99.6244 8.49251C100.227 8.49246 100.83 8.49104 101.433 8.4945C101.501 8.4949 101.595 8.44961 101.629 8.55629C101.652 8.63046 101.612 8.6785 101.549 8.72033C101.449 8.78611 101.469 8.88934 101.5 8.9793C101.54 9.09614 101.589 9.21129 101.648 9.31997C102.006 9.98446 102.368 10.647 102.729 11.3099C102.746 11.3414 102.768 11.3703 102.787 11.4001Z" fill="url(#paint4_linear_32_308)"/>
<path d="M90.3339 15.7281C89.8766 15.7476 89.4048 15.682 88.9479 15.527C87.6383 15.0829 86.657 13.7854 86.5611 12.4027C86.4915 11.3992 86.7027 10.4861 87.3565 9.69764C87.8691 9.07956 88.5163 8.67785 89.2961 8.50006C90.0732 8.32289 90.852 8.33083 91.6232 8.54393C92.9662 8.91508 94.0086 10.1561 94.1555 11.5387C94.2064 12.0175 94.2192 12.4947 94.1189 12.9661C93.8297 14.3259 92.6597 15.4267 91.273 15.6631C90.9697 15.7149 90.6658 15.7343 90.3339 15.7281ZM92.8865 12.4657C92.8882 11.7708 92.5393 10.6932 92.0741 10.0597C91.7896 9.67232 91.4223 9.3894 90.9749 9.21467C90.0608 8.85768 88.8587 8.99239 88.2241 10.2277C88.132 10.407 88.0585 10.5926 88.0045 10.7863C87.8576 11.3125 87.8692 11.8427 87.9483 12.3784C88.0736 13.2277 88.4126 13.9714 89.0245 14.5775C89.4901 15.0385 90.0573 15.2904 90.7143 15.1944C91.4844 15.0819 92.1258 14.7292 92.5166 14.0155C92.7649 13.5621 92.8904 13.0773 92.8865 12.4657Z" fill="url(#paint5_linear_32_308)"/>
<path d="M75.9527 12.0361C75.9527 11.2131 75.9519 10.3902 75.9533 9.56725C75.9536 9.35105 75.919 9.14731 75.768 8.98066C75.6556 8.85663 75.5199 8.77261 75.3504 8.74981C75.2744 8.73961 75.1896 8.73504 75.2014 8.62215C75.212 8.52066 75.2912 8.54138 75.3541 8.54257C76.4729 8.56356 77.5937 8.485 78.7106 8.58746C80.6444 8.76494 82.148 10.4038 82.174 12.3423C82.1793 12.7373 82.1438 13.1258 82.0291 13.5043C81.6669 14.6991 80.6014 15.5356 79.3258 15.5932C78.6477 15.6239 77.9674 15.6061 77.2881 15.608C76.6757 15.6097 76.0632 15.6086 75.4508 15.6079C75.3675 15.6078 75.271 15.6276 75.2777 15.4875C75.2813 15.413 75.2944 15.3737 75.3784 15.3471C75.8431 15.1996 75.9486 15.0575 75.9514 14.5622C75.9563 13.7202 75.9527 12.8781 75.9527 12.0361ZM77.1823 12.1736C77.1823 12.9097 77.1818 13.6458 77.1825 14.382C77.1829 14.7523 77.2861 14.8972 77.6386 15.0112C77.7379 15.0433 77.8421 15.0668 77.9457 15.0776C79.1451 15.2024 80.3366 14.428 80.7051 13.2804C80.8809 12.733 80.9169 12.1638 80.8059 11.608C80.5519 10.3364 79.7186 9.56952 78.5358 9.14039C78.4208 9.09865 78.2936 9.08179 78.1706 9.07199C77.4859 9.01738 77.1743 9.30128 77.1823 9.93645C77.183 9.9938 77.1823 10.0512 77.1823 10.1085C77.1823 10.7968 77.1823 11.4853 77.1823 12.1736Z" fill="url(#paint6_linear_32_308)"/>
<path d="M69.3766 8.44871C69.5112 9.08547 69.6453 9.71936 69.7794 10.3532C69.7833 10.372 69.7874 10.3906 69.791 10.4094C69.8057 10.4862 69.786 10.5395 69.6998 10.5555C69.6296 10.5685 69.5942 10.5379 69.5731 10.4746C69.3775 9.88907 68.9528 9.52449 68.4087 9.28048C67.8489 9.02945 67.2664 8.9858 66.6704 9.11706C66.4715 9.16084 66.2911 9.2488 66.1454 9.39554C65.8596 9.68325 65.8869 10.0395 66.2144 10.2771C66.4341 10.4365 66.6857 10.5296 66.9435 10.6023C67.5132 10.763 68.0867 10.9103 68.6553 11.0745C69.1073 11.205 69.5373 11.3811 69.9004 11.6979C70.7111 12.4053 70.8683 13.4292 70.274 14.3278C69.698 15.1988 68.878 15.6638 67.8331 15.7253C67.3121 15.7559 66.8029 15.692 66.3075 15.5258C66.0683 15.4455 65.8195 15.4404 65.5713 15.4294C65.4057 15.4221 65.2849 15.5129 65.1584 15.6268C65.0599 15.3237 65.0188 15.0208 64.9546 14.7236C64.8337 14.1636 64.7156 13.603 64.5961 13.0426C64.5842 12.9869 64.5567 12.9283 64.586 12.8755C64.6017 12.8472 64.6435 12.8291 64.6772 12.8158C64.7302 12.7951 64.7389 12.8409 64.7496 12.8757C64.7944 13.0216 64.8181 13.1778 64.8853 13.3123C65.39 14.3218 66.1693 14.9665 67.323 15.0667C67.8164 15.1096 68.2961 14.9836 68.7445 14.786C69.1627 14.6016 69.4565 14.0043 69.4207 13.5125C69.3812 12.9691 69.0741 12.6333 68.5801 12.4644C67.8123 12.2019 67.039 11.9554 66.2671 11.7048C65.936 11.5973 65.6339 11.436 65.3617 11.2214C64.6576 10.6664 64.617 9.74748 65.2704 9.12287C65.6217 8.78708 66.061 8.62836 66.5273 8.54138C67.2143 8.41318 67.8974 8.46397 68.5772 8.608C69.0119 8.70009 69.026 8.69383 69.3766 8.44871Z" fill="url(#paint7_linear_32_308)"/>
<path d="M58.8735 15.5591C58.4813 15.5591 58.0891 15.5601 57.697 15.5579C57.6458 15.5576 57.5727 15.5854 57.556 15.5035C57.5391 15.4205 57.6104 15.4211 57.6634 15.4045C58.0452 15.2842 58.1716 15.1255 58.1995 14.7287C58.2055 14.643 58.205 14.5566 58.205 14.4706C58.2053 12.8446 58.2055 11.2186 58.2048 9.59259C58.2047 9.44 58.2109 9.28692 58.1671 9.13703C58.1006 8.90938 57.9738 8.74468 57.7288 8.69549C57.6913 8.68795 57.6543 8.67823 57.617 8.67029C57.5571 8.6576 57.5439 8.61463 57.5518 8.56317C57.558 8.52312 57.5812 8.49406 57.6269 8.49343C57.6747 8.49277 57.7225 8.49246 57.7703 8.49242C58.4877 8.49233 59.2051 8.49237 59.9224 8.49242C59.9607 8.49242 59.999 8.49215 60.0372 8.49268C60.0965 8.49348 60.1516 8.49712 60.1547 8.57878C60.1578 8.66058 60.0993 8.66036 60.0438 8.67655C59.5959 8.80727 59.4719 8.9627 59.471 9.43273C59.4677 11.1257 59.4679 12.8187 59.4707 14.5116C59.4715 14.997 59.6608 15.2502 60.1162 15.4028C60.1692 15.4205 60.2399 15.4233 60.2214 15.5047C60.2032 15.5843 60.1303 15.5577 60.0787 15.558C59.677 15.5601 59.2752 15.5591 58.8735 15.5591Z" fill="url(#paint8_linear_32_308)"/>
<path d="M117.668 14.6746C117.033 15.2153 116.389 15.5444 115.638 15.6285C114.473 15.7589 113.502 15.4061 112.79 14.4487C111.785 13.0979 111.775 10.8894 112.762 9.52642C112.844 9.41366 112.932 9.30419 113.027 9.20332C114.178 7.99069 116.381 7.85895 117.67 8.92359C118.196 9.35879 118.428 9.84128 118.405 10.4583C118.206 10.5488 117.994 10.4889 117.788 10.5047C117.633 10.5166 117.554 10.456 117.481 10.298C117.034 9.3304 115.976 8.84721 114.906 9.12853C113.837 9.40941 113.2 10.1241 113.011 11.1998C112.899 11.8373 112.927 12.4882 113.098 13.1216C113.349 14.0541 113.927 14.6218 114.906 14.7707C115.332 14.8353 115.744 14.8127 116.149 14.7011C117.145 14.4272 117.67 13.692 117.675 12.5678C117.415 12.4739 117.137 12.5322 116.867 12.5215C116.641 12.5124 116.414 12.5196 116.187 12.5196C115.665 12.5196 115.441 12.2382 115.515 11.6755C116.448 11.6755 117.387 11.6763 118.326 11.6747C118.483 11.6745 118.535 11.7506 118.535 11.9003C118.532 12.9999 118.531 14.0995 118.535 15.1991C118.535 15.3686 118.483 15.4824 118.299 15.448C118.121 15.415 117.855 15.587 117.797 15.2457C117.768 15.0773 117.722 14.9118 117.668 14.6746Z" fill="url(#paint9_linear_32_308)"/>
<path d="M122.491 12.1164C122.471 10.3769 123.085 9.30036 124.327 8.68688C125.603 8.05588 126.895 8.16523 128.084 8.99917C128.46 9.26315 128.758 9.61127 128.946 10.0321C129.516 11.3119 129.546 12.6091 128.912 13.8642C128.214 15.2452 126.8 15.7776 125.3 15.6333C124.088 15.5167 123.288 14.8362 122.839 13.7265C122.588 13.1057 122.482 12.4546 122.491 12.1164ZM128.368 11.7779C128.372 11.0914 128.231 10.5104 127.815 10.0211C127.179 9.27157 126.348 9.03199 125.416 9.21217C124.484 9.39236 123.884 10.003 123.586 10.8922C123.36 11.566 123.349 12.2647 123.498 12.9552C123.725 14.0096 124.474 14.6882 125.494 14.8039C126.64 14.9338 127.485 14.4855 127.985 13.4882C128.266 12.9303 128.346 12.3315 128.368 11.7779Z" fill="url(#paint10_linear_32_308)"/>
<path d="M137.956 14.6438C138.028 15.1835 137.803 15.4534 137.28 15.4534C136.165 15.4534 135.05 15.4551 133.935 15.4525C133.523 15.4515 133.516 15.4469 133.515 15.0709C133.512 12.9629 133.513 10.8549 133.515 8.74698C133.515 8.36239 133.522 8.36222 133.926 8.35596C133.996 8.3549 134.065 8.35454 134.135 8.35596C134.522 8.36408 134.528 8.3643 134.53 8.7684C134.533 9.77884 134.531 10.7893 134.531 11.7997C134.531 12.5663 134.531 13.3328 134.53 14.0993C134.53 14.7026 134.541 14.6025 135.036 14.605C135.838 14.6092 136.639 14.604 137.441 14.6078C137.613 14.6086 137.789 14.5751 137.956 14.6438Z" fill="url(#paint11_linear_32_308)"/>
<path d="M147.719 10.6162C147.419 9.36314 146.461 8.46298 145.255 8.38251C144.251 8.3154 143.238 8.36876 142.239 8.36876C142.216 8.42488 142.192 8.45686 142.191 8.48893C142.187 10.7222 142.186 12.9555 142.179 15.1888C142.178 15.3948 142.256 15.4567 142.455 15.4549C143.293 15.4469 144.13 15.4547 144.968 15.4501C146.158 15.4437 146.996 14.8879 147.456 13.7941C147.889 12.7673 147.979 11.6976 147.719 10.6162ZM146.338 13.8185C146.097 14.3103 145.688 14.5641 145.114 14.5431C144.557 14.5227 143.999 14.5264 143.443 14.5443C143.171 14.5531 143.079 14.4708 143.085 14.1913C143.094 13.7998 143.096 13.408 143.095 13.0163C143.094 12.6245 143.092 12.2328 143.092 11.841C143.092 11.1098 143.089 10.3785 143.092 9.64725C143.094 9.20536 143.098 9.20385 143.559 9.20155C143.977 9.19951 144.394 9.20443 144.812 9.20052C145.483 9.19427 145.996 9.47284 146.31 10.0644C146.969 11.307 146.949 12.5683 146.338 13.8185Z" fill="url(#paint12_linear_32_308)"/>
<path d="M44.2324 26.6799V23.7575C44.2324 23.1877 44.4081 22.7327 44.7601 22.3927C45.1119 22.0523 45.6774 21.8823 46.4568 21.8823C47.2362 21.8823 47.7999 22.0523 48.1489 22.3927C48.4979 22.7327 48.6725 23.1877 48.6725 23.7575V26.6799H47.4947V23.6706C47.4947 23.3799 47.4032 23.1614 47.22 23.0164C47.0367 22.8708 46.7824 22.7983 46.4568 22.7983C45.7588 22.7983 45.4099 23.0889 45.4099 23.6706V24.5166C45.5203 24.4354 45.644 24.3685 45.7807 24.3161C45.9173 24.2636 46.067 24.2374 46.23 24.2374H46.7968L46.8317 25.1709H46.2038C46.0407 25.1709 45.8954 25.1928 45.7676 25.2364C45.6396 25.2801 45.5203 25.3426 45.4099 25.4239V26.68L44.2324 26.6799Z" fill="url(#paint13_linear_32_308)"/>
<path d="M51.2892 26.7673C50.9634 26.7673 50.6509 26.7441 50.3516 26.6974C50.052 26.6511 49.8092 26.5899 49.6231 26.5143V25.5633C49.844 25.6564 50.0867 25.7276 50.3516 25.777C50.6159 25.8269 50.8559 25.8513 51.0711 25.8513C51.4491 25.8513 51.7238 25.8225 51.8955 25.764C52.0671 25.7063 52.1527 25.587 52.1527 25.4065C52.1527 25.2671 52.1077 25.1596 52.0177 25.0835C51.9275 25.0083 51.7893 24.9397 51.6032 24.8785C51.417 24.8178 51.1786 24.7378 50.888 24.6386C50.4634 24.4878 50.1304 24.3174 49.8892 24.1286C49.6477 23.9394 49.5271 23.6588 49.5271 23.2865C49.5271 22.8678 49.6899 22.5291 50.0157 22.2704C50.3413 22.0117 50.8327 21.8823 51.4898 21.8823C51.7631 21.8823 52.0365 21.9028 52.3099 21.9435C52.5832 21.9841 52.8072 22.0335 52.9816 22.0916V23.0338C52.7897 22.9521 52.5701 22.8927 52.323 22.8547C52.0756 22.8171 51.8532 22.7983 51.6557 22.7983C51.3823 22.7983 51.1454 22.8289 50.9446 22.8896C50.744 22.9508 50.6438 23.0745 50.6438 23.2606C50.6438 23.3769 50.6947 23.47 50.7965 23.5395C50.8981 23.6094 51.0436 23.6737 51.2326 23.7318C51.4214 23.7899 51.6469 23.8655 51.9087 23.9581C52.2343 24.0687 52.4974 24.1849 52.6982 24.3073C52.8988 24.4293 53.0441 24.5778 53.1343 24.7522C53.2243 24.9266 53.2693 25.1446 53.2693 25.4064C53.2693 25.8657 53.0934 26.2075 52.7416 26.4312C52.3898 26.6554 51.9056 26.7673 51.2892 26.7673Z" fill="url(#paint14_linear_32_308)"/>
<path d="M56.3222 26.7673C55.6302 26.7673 55.0837 26.603 54.6823 26.2743C54.2811 25.9457 54.0805 25.4501 54.0805 24.7872V21.9693H55.258V24.8046C55.258 25.5026 55.6127 25.8513 56.3222 25.8513C57.0317 25.8513 57.3866 25.5026 57.3866 24.8046V21.9693H58.5641V24.7872C58.5641 25.4501 58.3635 25.9457 57.9624 26.2743C57.561 26.603 57.0142 26.7673 56.3222 26.7673Z" fill="url(#paint15_linear_32_308)"/>
<path d="M63.3885 26.7673C63.2605 26.7673 63.1136 26.7542 62.948 26.728C62.7821 26.7017 62.6497 26.6711 62.5509 26.6362L61.888 24.8654H61.2426L61.2948 24.0281H62.6294L63.3186 25.8688C63.6792 25.8688 63.9584 25.7451 64.1561 25.4982C64.3537 25.2509 64.4527 24.8453 64.4527 24.2811C64.4527 23.9031 64.4046 23.6064 64.3087 23.3914C64.2128 23.1763 64.0484 23.0238 63.816 22.9334C63.5833 22.8433 63.2664 22.7983 62.865 22.7983C62.6325 22.7983 62.3839 22.8171 62.1193 22.8547C61.8547 22.8927 61.6031 22.9495 61.3648 23.0251V22.1528C61.6031 22.0772 61.8778 22.013 62.189 21.9605C62.5002 21.9086 62.8273 21.8823 63.1706 21.8823C64.0311 21.8823 64.6461 22.0886 65.0154 22.5015C65.3847 22.9145 65.5693 23.5075 65.5693 24.2811C65.5693 24.8221 65.469 25.277 65.2684 25.6463C65.0678 26.0156 64.8017 26.2948 64.4702 26.4836C64.1387 26.6729 63.7779 26.7673 63.3885 26.7673Z" fill="url(#paint16_linear_32_308)"/>
<path d="M68.6223 26.7673C67.9302 26.7673 67.3837 26.603 66.9823 26.2743C66.5812 25.9457 66.3806 25.4501 66.3806 24.7872V21.9693H67.5581V24.8046C67.5581 25.5026 67.9128 25.8513 68.6223 25.8513C69.3318 25.8513 69.6867 25.5026 69.6867 24.8046V21.9693H70.8642V24.7872C70.8642 25.4501 70.6636 25.9457 70.2624 26.2743C69.861 26.603 69.3143 26.7673 68.6223 26.7673Z" fill="url(#paint17_linear_32_308)"/>
<path d="M73.8038 26.6798V21.9692H74.8854L74.9376 22.4315C75.1469 22.2633 75.3897 22.1295 75.6661 22.0304C75.9423 21.9316 76.2432 21.8822 76.569 21.8822C77.063 21.8822 77.4513 22.0334 77.7334 22.3358C78.0155 22.6382 78.1565 23.0538 78.1565 23.5831V26.6798H76.9789V23.653C76.9789 23.3506 76.9077 23.1325 76.7652 22.9988C76.6225 22.8651 76.4119 22.7982 76.1328 22.7982C75.9176 22.7982 75.7039 22.8445 75.4915 22.9376C75.2793 23.0307 75.1091 23.147 74.9813 23.2864V26.6798H73.8038Z" fill="url(#paint18_linear_32_308)"/>
<path d="M77.1452 28.8868V27.8751H76.6218L76.6653 27.1247H78.1396V28.8868H77.1452Z" fill="url(#paint19_linear_32_308)"/>
<path d="M79.2297 26.6799V25.1796C79.2297 24.9121 79.2748 24.6753 79.365 24.4686C79.455 24.2623 79.634 24.1185 79.9014 24.0368L79.0116 23.8012V22.6759C79.25 22.4727 79.5684 22.2891 79.9669 22.1266C80.365 21.9636 80.8202 21.8823 81.332 21.8823C81.8031 21.8823 82.2058 21.9435 82.5401 22.0654C82.8747 22.1873 83.1303 22.391 83.3077 22.6759C83.4852 22.9608 83.5739 23.3476 83.5739 23.8362V26.6799H82.3964V23.81C82.3964 23.4437 82.3105 23.1833 82.1389 23.0294C81.9674 22.8752 81.6779 22.7982 81.271 22.7982C81.0093 22.7982 80.7693 22.8358 80.5513 22.9115C80.3332 22.9871 80.1573 23.0832 80.0236 23.1994V23.3214L80.9918 23.5831V24.2985C80.7593 24.3566 80.6037 24.451 80.525 24.5822C80.4466 24.7128 80.4075 24.9152 80.4075 25.1883V26.6799H79.2297Z" fill="url(#paint20_linear_32_308)"/>
<path d="M86.8452 26.7673C86.1531 26.7673 85.6066 26.603 85.2052 26.2743C84.8041 25.9457 84.6035 25.4501 84.6035 24.7872V21.9693H85.781V24.8046C85.781 25.5026 86.1357 25.8513 86.8452 25.8513C87.5547 25.8513 87.9095 25.5026 87.9095 24.8046V21.9693H89.0871V24.7872C89.0871 25.4501 88.8865 25.9457 88.4853 26.2743C88.0839 26.603 87.5372 26.7673 86.8452 26.7673Z" fill="url(#paint21_linear_32_308)"/>
<path d="M91.7042 26.7673C91.3784 26.7673 91.0659 26.7441 90.7666 26.6974C90.467 26.6511 90.2243 26.5899 90.0381 26.5143V25.5633C90.259 25.6564 90.5018 25.7276 90.7666 25.777C91.031 25.8269 91.2709 25.8513 91.4861 25.8513C91.8641 25.8513 92.1388 25.8225 92.3106 25.764C92.4821 25.7063 92.5678 25.587 92.5678 25.4065C92.5678 25.2671 92.5227 25.1596 92.4327 25.0835C92.3425 25.0083 92.2044 24.9397 92.0182 24.8785C91.832 24.8178 91.5936 24.7378 91.303 24.6386C90.8785 24.4878 90.5455 24.3174 90.3042 24.1286C90.0627 23.9394 89.9421 23.6588 89.9421 23.2865C89.9421 22.8678 90.1049 22.5291 90.4307 22.2704C90.7563 22.0117 91.2477 21.8823 91.9048 21.8823C92.1782 21.8823 92.4515 21.9028 92.7249 21.9435C92.9982 21.9841 93.2222 22.0335 93.3966 22.0916V23.0338C93.2047 22.9521 92.9851 22.8927 92.738 22.8547C92.4907 22.8171 92.2682 22.7983 92.0707 22.7983C91.7973 22.7983 91.5605 22.8289 91.3597 22.8896C91.1591 22.9508 91.0588 23.0745 91.0588 23.2606C91.0588 23.3769 91.1097 23.47 91.2115 23.5395C91.3131 23.6094 91.4586 23.6737 91.6476 23.7318C91.8364 23.7899 92.0619 23.8655 92.3237 23.9581C92.6493 24.0687 92.9124 24.1849 93.1132 24.3073C93.3138 24.4293 93.4591 24.5778 93.5493 24.7522C93.6394 24.9266 93.6843 25.1446 93.6843 25.4064C93.6843 25.8657 93.5085 26.2075 93.1567 26.4312C92.8049 26.6554 92.3206 26.7673 91.7042 26.7673Z" fill="url(#paint22_linear_32_308)"/>
<path d="M89.6455 21.3238L89.7067 20.5214H93.4576V21.3238H89.6455Z" fill="url(#paint23_linear_32_308)"/>
<path d="M94.5392 26.6799V25.1796C94.5392 24.9121 94.5842 24.6753 94.6744 24.4686C94.7645 24.2623 94.9434 24.1185 95.2108 24.0368L94.321 23.8012V22.6759C94.5594 22.4727 94.8778 22.2891 95.2763 22.1266C95.6745 21.9636 96.1296 21.8823 96.6414 21.8823C97.1125 21.8823 97.5152 21.9435 97.8495 22.0654C98.1841 22.1873 98.4397 22.391 98.6172 22.6759C98.7946 22.9608 98.8833 23.3476 98.8833 23.8362V26.6799H97.7058V23.81C97.7058 23.4437 97.6199 23.1833 97.4484 23.0294C97.2768 22.8752 96.9873 22.7982 96.5804 22.7982C96.3187 22.7982 96.0787 22.8358 95.8607 22.9115C95.6426 22.9871 95.4667 23.0832 95.333 23.1994V23.3214L96.3012 23.5831V24.2985C96.0687 24.3566 95.9131 24.451 95.8345 24.5822C95.756 24.7128 95.7169 24.9152 95.7169 25.1883V26.6799H94.5392Z" fill="url(#paint24_linear_32_308)"/>
<path d="M101.579 26.6798V23.7837C101.579 23.4699 101.518 23.227 101.396 23.0557C101.273 22.8839 101.029 22.7982 100.663 22.7982C100.471 22.7982 100.267 22.8201 100.052 22.8634C99.8369 22.9071 99.645 22.9608 99.4763 23.0251V22.1615C99.6509 22.0798 99.8659 22.0129 100.122 21.9605C100.378 21.9085 100.634 21.8822 100.89 21.8822C101.553 21.8822 102.029 22.0234 102.32 22.3053C102.611 22.5876 102.756 23.025 102.756 23.618V26.6798L101.579 26.6798Z" fill="url(#paint25_linear_32_308)"/>
<path d="M105.373 26.7673C105.048 26.7673 104.735 26.7441 104.436 26.6974C104.136 26.6511 103.893 26.5899 103.707 26.5143V25.5633C103.928 25.6564 104.171 25.7276 104.436 25.777C104.7 25.8269 104.94 25.8513 105.155 25.8513C105.533 25.8513 105.808 25.8225 105.98 25.764C106.151 25.7063 106.237 25.587 106.237 25.4065C106.237 25.2671 106.192 25.1596 106.102 25.0835C106.012 25.0083 105.874 24.9397 105.687 24.8785C105.501 24.8178 105.263 24.7378 104.972 24.6386C104.548 24.4878 104.215 24.3174 103.973 24.1286C103.732 23.9394 103.611 23.6588 103.611 23.2865C103.611 22.8678 103.774 22.5291 104.1 22.2704C104.425 22.0117 104.917 21.8823 105.574 21.8823C105.847 21.8823 106.121 21.9028 106.394 21.9435C106.667 21.9841 106.891 22.0335 107.066 22.0916V23.0338C106.874 22.9521 106.654 22.8927 106.407 22.8547C106.16 22.8171 105.937 22.7983 105.74 22.7983C105.467 22.7983 105.23 22.8289 105.029 22.8896C104.828 22.9508 104.728 23.0745 104.728 23.2606C104.728 23.3769 104.779 23.47 104.881 23.5395C104.982 23.6094 105.128 23.6737 105.317 23.7318C105.506 23.7899 105.731 23.8655 105.993 23.9581C106.318 24.0687 106.582 24.1849 106.782 24.3073C106.983 24.4293 107.128 24.5778 107.218 24.7522C107.309 24.9266 107.354 25.1446 107.354 25.4064C107.354 25.8657 107.178 26.2075 106.826 26.4312C106.474 26.6554 105.99 26.7673 105.373 26.7673Z" fill="url(#paint26_linear_32_308)"/>
<path d="M109.22 26.6798C108.842 26.6798 108.576 26.6016 108.422 26.4443C108.268 26.2874 108.191 26.0405 108.191 25.7031V21.9693H109.368V25.3977C109.368 25.6419 109.487 25.7639 109.726 25.7639H110.023V26.6799L109.22 26.6798Z" fill="url(#paint27_linear_32_308)"/>
<path d="M112.43 26.7673C112.104 26.7673 111.792 26.7441 111.493 26.6974C111.193 26.6511 110.95 26.5899 110.764 26.5143V25.5633C110.985 25.6564 111.228 25.7276 111.493 25.777C111.757 25.8269 111.997 25.8513 112.212 25.8513C112.59 25.8513 112.865 25.8225 113.037 25.764C113.208 25.7063 113.294 25.587 113.294 25.4065C113.294 25.2671 113.249 25.1596 113.159 25.0835C113.069 25.0083 112.93 24.9397 112.744 24.8785C112.558 24.8178 112.32 24.7378 112.029 24.6386C111.605 24.4878 111.272 24.3174 111.03 24.1286C110.789 23.9394 110.668 23.6588 110.668 23.2865C110.668 22.8678 110.831 22.5291 111.157 22.2704C111.482 22.0117 111.974 21.8823 112.631 21.8823C112.904 21.8823 113.178 21.9028 113.451 21.9435C113.724 21.9841 113.948 22.0335 114.123 22.0916V23.0338C113.931 22.9521 113.711 22.8927 113.464 22.8547C113.217 22.8171 112.994 22.7983 112.797 22.7983C112.523 22.7983 112.287 22.8289 112.086 22.8896C111.885 22.9508 111.785 23.0745 111.785 23.2606C111.785 23.3769 111.836 23.47 111.938 23.5395C112.039 23.6094 112.185 23.6737 112.374 23.7318C112.563 23.7899 112.788 23.8655 113.05 23.9581C113.375 24.0687 113.638 24.1849 113.839 24.3073C114.04 24.4293 114.185 24.5778 114.275 24.7522C114.365 24.9266 114.41 25.1446 114.41 25.4064C114.41 25.8657 114.235 26.2075 113.883 26.4312C113.531 26.6554 113.047 26.7673 112.43 26.7673Z" fill="url(#paint28_linear_32_308)"/>
<path d="M110.372 21.3238L110.433 20.5214H112.029V19.8147H112.858V20.5214H113.355V19.8147H114.184V21.3238H110.372Z" fill="url(#paint29_linear_32_308)"/>
<path d="M113.181 19.3524V18.1314H114.14V19.3524H113.181Z" fill="url(#paint30_linear_32_308)"/>
<path d="M116.993 26.7673C116.603 26.7673 116.24 26.731 115.902 26.6581C115.565 26.5855 115.28 26.4999 115.047 26.4011V23.9236H117.045L117.098 24.7872H116.164V25.7377C116.274 25.7727 116.407 25.8006 116.561 25.8207C116.715 25.8413 116.862 25.8513 117.002 25.8513C117.478 25.8513 117.813 25.7377 118.005 25.5113C118.197 25.2845 118.293 24.8947 118.293 24.3423C118.293 23.9468 118.242 23.637 118.14 23.4132C118.038 23.1895 117.872 23.0309 117.643 22.9378C117.413 22.8447 117.1 22.7983 116.705 22.7983C116.449 22.7983 116.183 22.8172 115.907 22.8547C115.63 22.8927 115.364 22.9522 115.109 23.0339V22.1528C115.37 22.0655 115.67 21.9986 116.007 21.9518C116.344 21.9055 116.673 21.8823 116.993 21.8823C117.842 21.8823 118.457 22.093 118.838 22.5147C119.219 22.9364 119.409 23.5456 119.409 24.3423C119.409 25.1215 119.219 25.7207 118.838 26.1393C118.457 26.558 117.842 26.7673 116.993 26.7673Z" fill="url(#paint31_linear_32_308)"/>
<path d="M121.991 26.7673C121.834 26.7673 121.667 26.7555 121.49 26.7324C121.312 26.7092 121.157 26.6773 121.023 26.6362L119.697 23.4089H120.84L121.878 25.93C122.314 25.93 122.629 25.7832 122.824 25.4895C123.019 25.1958 123.116 24.7579 123.116 24.1767C123.116 23.8275 123.083 23.5544 123.016 23.3564C122.949 23.1589 122.84 23.0177 122.689 22.9334C122.538 22.849 122.328 22.8071 122.061 22.8071H121.703V21.9693H122.227C122.919 21.9693 123.426 22.1511 123.749 22.5147C124.072 22.8783 124.233 23.432 124.233 24.1767C124.233 24.7872 124.137 25.2828 123.945 25.6639C123.753 26.0449 123.49 26.3238 123.156 26.5012C122.821 26.6786 122.433 26.7673 121.991 26.7673Z" fill="url(#paint32_linear_32_308)"/>
<path d="M124.809 26.6798V21.9692H125.89L125.943 22.4315C126.152 22.2633 126.395 22.1295 126.671 22.0304C126.947 21.9316 127.248 21.8822 127.574 21.8822C128.068 21.8822 128.456 22.0334 128.739 22.3358C129.021 22.6382 129.162 23.0538 129.162 23.5831V26.6798H127.984V23.653C127.984 23.3506 127.913 23.1325 127.77 22.9988C127.628 22.8651 127.417 22.7982 127.138 22.7982C126.923 22.7982 126.709 22.8445 126.497 22.9376C126.284 23.0307 126.114 23.147 125.986 23.2864V26.6798H124.809Z" fill="url(#paint33_linear_32_308)"/>
<path d="M131.962 26.7673C131.572 26.7673 131.209 26.731 130.871 26.6581C130.534 26.5855 130.249 26.4999 130.016 26.4011V23.9236H132.014L132.066 24.7872H131.133V25.7377C131.243 25.7727 131.376 25.8006 131.53 25.8207C131.684 25.8413 131.831 25.8513 131.97 25.8513C132.447 25.8513 132.782 25.7377 132.974 25.5113C133.165 25.2845 133.261 24.8947 133.261 24.3423C133.261 23.9468 133.211 23.637 133.109 23.4132C133.007 23.1895 132.841 23.0309 132.612 22.9378C132.382 22.8447 132.069 22.7983 131.674 22.7983C131.418 22.7983 131.152 22.8172 130.876 22.8547C130.599 22.8927 130.333 22.9522 130.078 23.0339V22.1528C130.339 22.0655 130.639 21.9986 130.976 21.9518C131.313 21.9055 131.642 21.8823 131.962 21.8823C132.811 21.8823 133.426 22.093 133.807 22.5147C134.187 22.9364 134.378 23.5456 134.378 24.3423C134.378 25.1215 134.187 25.7207 133.807 26.1393C133.426 26.558 132.811 26.7673 131.962 26.7673Z" fill="url(#paint34_linear_32_308)"/>
<path d="M136.96 26.7673C136.803 26.7673 136.636 26.7555 136.459 26.7324C136.281 26.7092 136.126 26.6773 135.992 26.6362L134.666 23.4089H135.809L136.847 25.93C137.283 25.93 137.598 25.7832 137.793 25.4895C137.988 25.1958 138.086 24.7579 138.086 24.1767C138.086 23.8275 138.052 23.5544 137.985 23.3564C137.918 23.1589 137.809 23.0177 137.658 22.9334C137.507 22.849 137.297 22.8071 137.03 22.8071H136.672V21.9693H137.196C137.888 21.9693 138.395 22.1511 138.718 22.5147C139.041 22.8783 139.202 23.432 139.202 24.1767C139.202 24.7872 139.106 25.2828 138.914 25.6639C138.722 26.0449 138.459 26.3238 138.125 26.5012C137.79 26.6786 137.402 26.7673 136.96 26.7673Z" fill="url(#paint35_linear_32_308)"/>
<path d="M139.778 26.6799V23.7575C139.778 23.1877 139.954 22.7327 140.306 22.3927C140.657 22.0523 141.223 21.8823 142.002 21.8823C142.782 21.8823 143.346 22.0523 143.694 22.3927C144.043 22.7327 144.218 23.1877 144.218 23.7575V26.6799H143.04V23.6706C143.04 23.3799 142.949 23.1614 142.766 23.0164C142.582 22.8708 142.328 22.7983 142.002 22.7983C141.304 22.7983 140.956 23.0889 140.956 23.6706V24.5166C141.066 24.4354 141.19 24.3685 141.326 24.3161C141.463 24.2636 141.613 24.2374 141.776 24.2374H142.342L142.377 25.1709H141.749C141.586 25.1709 141.441 25.1928 141.313 25.2364C141.185 25.2801 141.066 25.3426 140.956 25.4239V26.68L139.778 26.6799Z" fill="url(#paint36_linear_32_308)"/>
<path d="M143.651 21.4723C143.36 21.4723 143.112 21.378 142.905 21.1887C142.699 20.9999 142.595 20.76 142.595 20.469C142.595 20.1783 142.699 19.9371 142.905 19.7448C143.112 19.553 143.36 19.4572 143.651 19.4572C143.942 19.4572 144.189 19.553 144.392 19.7448C144.596 19.9371 144.698 20.1783 144.698 20.469C144.698 20.76 144.596 20.9999 144.392 21.1887C144.189 21.378 143.942 21.4723 143.651 21.4723ZM143.651 20.8527C143.756 20.8527 143.846 20.8138 143.921 20.7351C143.997 20.6565 144.035 20.5682 144.035 20.469C144.035 20.3645 143.997 20.2727 143.921 20.1941C143.846 20.1158 143.756 20.0765 143.651 20.0765C143.546 20.0765 143.455 20.1159 143.376 20.1941C143.298 20.2727 143.258 20.3645 143.258 20.469C143.258 20.5681 143.298 20.6565 143.376 20.7351C143.455 20.8138 143.546 20.8527 143.651 20.8527Z" fill="url(#paint37_linear_32_308)"/>
<path d="M146.913 26.6798V23.7837C146.913 23.4699 146.852 23.227 146.73 23.0557C146.608 22.8839 146.364 22.7982 145.997 22.7982C145.806 22.7982 145.602 22.8201 145.387 22.8634C145.171 22.9071 144.98 22.9608 144.811 23.0251V22.1615C144.985 22.0798 145.2 22.0129 145.457 21.9605C145.712 21.9085 145.968 21.8822 146.224 21.8822C146.887 21.8822 147.364 22.0234 147.655 22.3053C147.945 22.5876 148.091 23.025 148.091 23.618V26.6798L146.913 26.6798Z" fill="url(#paint38_linear_32_308)"/>
<defs>
<linearGradient id="paint0_linear_32_308" x1="33.537" y1="-0.470687" x2="-8.51837" y2="35.7093" gradientUnits="userSpaceOnUse">
<stop stop-color="#EFDCB2"/>
<stop offset="0.0684" stop-color="#EEDBAE"/>
<stop offset="0.1198" stop-color="#EED7A5"/>
<stop offset="0.1658" stop-color="#EDD295"/>
<stop offset="0.2083" stop-color="#ECCB7E"/>
<stop offset="0.2269" stop-color="#ECC772"/>
<stop offset="0.3" stop-color="#ECC976"/>
<stop offset="0.3754" stop-color="#EFCE82"/>
<stop offset="0.4517" stop-color="#F4D897"/>
<stop offset="0.5147" stop-color="#F9E4AE"/>
<stop offset="0.5536" stop-color="#F5DFA7"/>
<stop offset="0.6083" stop-color="#EAD195"/>
<stop offset="0.6719" stop-color="#D9BC77"/>
<stop offset="0.7183" stop-color="#CAA95D"/>
<stop offset="0.7487" stop-color="#D5B86C"/>
<stop offset="0.7885" stop-color="#DDC477"/>
<stop offset="0.8445" stop-color="#E2CB7E"/>
<stop offset="1" stop-color="#E4CD80"/>
</linearGradient>
<linearGradient id="paint1_linear_32_308" x1="42.2745" y1="10.0281" x2="0.176075" y2="46.2452" gradientUnits="userSpaceOnUse">
<stop stop-color="#EFDCB2"/>
<stop offset="0.0684" stop-color="#EEDBAE"/>
<stop offset="0.1198" stop-color="#EED7A5"/>
<stop offset="0.1658" stop-color="#EDD295"/>
<stop offset="0.2083" stop-color="#ECCB7E"/>
<stop offset="0.2269" stop-color="#ECC772"/>
<stop offset="0.3" stop-color="#ECC976"/>
<stop offset="0.3754" stop-color="#EFCE82"/>
<stop offset="0.4517" stop-color="#F4D897"/>
<stop offset="0.5147" stop-color="#F9E4AE"/>
<stop offset="0.5536" stop-color="#F5DFA7"/>
<stop offset="0.6083" stop-color="#EAD195"/>
<stop offset="0.6719" stop-color="#D9BC77"/>
<stop offset="0.7183" stop-color="#CAA95D"/>
<stop offset="0.7487" stop-color="#D5B86C"/>
<stop offset="0.7885" stop-color="#DDC477"/>
<stop offset="0.8445" stop-color="#E2CB7E"/>
<stop offset="1" stop-color="#E4CD80"/>
</linearGradient>
<linearGradient id="paint2_linear_32_308" x1="32.7209" y1="-1.89349" x2="-9.88987" y2="34.7643" gradientUnits="userSpaceOnUse">
<stop stop-color="#EFDCB2"/>
<stop offset="0.0684" stop-color="#EEDBAE"/>
<stop offset="0.1198" stop-color="#EED7A5"/>
<stop offset="0.1658" stop-color="#EDD295"/>
<stop offset="0.2083" stop-color="#ECCB7E"/>
<stop offset="0.2269" stop-color="#ECC772"/>
<stop offset="0.3" stop-color="#ECC976"/>
<stop offset="0.3754" stop-color="#EFCE82"/>
<stop offset="0.4517" stop-color="#F4D897"/>
<stop offset="0.5147" stop-color="#F9E4AE"/>
<stop offset="0.5536" stop-color="#F5DFA7"/>
<stop offset="0.6083" stop-color="#EAD195"/>
<stop offset="0.6719" stop-color="#D9BC77"/>
<stop offset="0.7183" stop-color="#CAA95D"/>
<stop offset="0.7487" stop-color="#D5B86C"/>
<stop offset="0.7885" stop-color="#DDC477"/>
<stop offset="0.8445" stop-color="#E2CB7E"/>
<stop offset="1" stop-color="#E4CD80"/>
</linearGradient>
<linearGradient id="paint3_linear_32_308" x1="48.4332" y1="15.5642" x2="48.4332" y2="8.48753" gradientUnits="userSpaceOnUse">
<stop stop-color="#EFDCB2"/>
<stop offset="0.1951" stop-color="#EDD296"/>
<stop offset="0.4208" stop-color="#ECCA7B"/>
<stop offset="0.5549" stop-color="#ECC772"/>
<stop offset="1" stop-color="#E4CD80"/>
</linearGradient>
<linearGradient id="paint4_linear_32_308" x1="102.782" y1="15.5596" x2="102.782" y2="8.4851" gradientUnits="userSpaceOnUse">
<stop stop-color="#EFDCB2"/>
<stop offset="0.1951" stop-color="#EDD296"/>
<stop offset="0.4208" stop-color="#ECCA7B"/>
<stop offset="0.5549" stop-color="#ECC772"/>
<stop offset="1" stop-color="#E4CD80"/>
</linearGradient>
<linearGradient id="paint5_linear_32_308" x1="90.3713" y1="15.7314" x2="90.3713" y2="8.37497" gradientUnits="userSpaceOnUse">
<stop stop-color="#EFDCB2"/>
<stop offset="0.1951" stop-color="#EDD296"/>
<stop offset="0.4208" stop-color="#ECCA7B"/>
<stop offset="0.5549" stop-color="#ECC772"/>
<stop offset="1" stop-color="#E4CD80"/>
</linearGradient>
<linearGradient id="paint6_linear_32_308" x1="78.6874" y1="15.6114" x2="78.6874" y2="8.53335" gradientUnits="userSpaceOnUse">
<stop stop-color="#EFDCB2"/>
<stop offset="0.1951" stop-color="#EDD296"/>
<stop offset="0.4208" stop-color="#ECCA7B"/>
<stop offset="0.5549" stop-color="#ECC772"/>
<stop offset="1" stop-color="#E4CD80"/>
</linearGradient>
<linearGradient id="paint7_linear_32_308" x1="67.6029" y1="15.7327" x2="67.6029" y2="8.44871" gradientUnits="userSpaceOnUse">
<stop stop-color="#EFDCB2"/>
<stop offset="0.1951" stop-color="#EDD296"/>
<stop offset="0.4208" stop-color="#ECCA7B"/>
<stop offset="0.5549" stop-color="#ECC772"/>
<stop offset="1" stop-color="#E4CD80"/>
</linearGradient>
<linearGradient id="paint8_linear_32_308" x1="58.887" y1="15.5622" x2="58.887" y2="8.49233" gradientUnits="userSpaceOnUse">
<stop stop-color="#EFDCB2"/>
<stop offset="0.1951" stop-color="#EDD296"/>
<stop offset="0.4208" stop-color="#ECCA7B"/>
<stop offset="0.5549" stop-color="#ECC772"/>
<stop offset="1" stop-color="#E4CD80"/>
</linearGradient>
<linearGradient id="paint9_linear_32_308" x1="115.282" y1="15.6546" x2="115.282" y2="8.20255" gradientUnits="userSpaceOnUse">
<stop stop-color="#EFDCB2"/>
<stop offset="0.1951" stop-color="#EDD296"/>
<stop offset="0.4208" stop-color="#ECCA7B"/>
<stop offset="0.5549" stop-color="#ECC772"/>
<stop offset="1" stop-color="#E4CD80"/>
</linearGradient>
<linearGradient id="paint10_linear_32_308" x1="125.936" y1="15.6562" x2="125.936" y2="8.28233" gradientUnits="userSpaceOnUse">
<stop stop-color="#EFDCB2"/>
<stop offset="0.1951" stop-color="#EDD296"/>
<stop offset="0.4208" stop-color="#ECCA7B"/>
<stop offset="0.5549" stop-color="#ECC772"/>
<stop offset="1" stop-color="#E4CD80"/>
</linearGradient>
<linearGradient id="paint11_linear_32_308" x1="135.76" y1="15.454" x2="135.76" y2="8.35499" gradientUnits="userSpaceOnUse">
<stop stop-color="#EFDCB2"/>
<stop offset="0.1951" stop-color="#EDD296"/>
<stop offset="0.4208" stop-color="#ECCA7B"/>
<stop offset="0.5549" stop-color="#ECC772"/>
<stop offset="1" stop-color="#E4CD80"/>
</linearGradient>
<linearGradient id="paint12_linear_32_308" x1="145.022" y1="15.4549" x2="145.022" y2="8.34867" gradientUnits="userSpaceOnUse">
<stop stop-color="#EFDCB2"/>
<stop offset="0.1951" stop-color="#EDD296"/>
<stop offset="0.4208" stop-color="#ECCA7B"/>
<stop offset="0.5549" stop-color="#ECC772"/>
<stop offset="1" stop-color="#E4CD80"/>
</linearGradient>
<linearGradient id="paint13_linear_32_308" x1="46.4524" y1="26.6799" x2="46.4524" y2="21.8823" gradientUnits="userSpaceOnUse">
<stop stop-color="#EFDCB2"/>
<stop offset="0.1951" stop-color="#EDD296"/>
<stop offset="0.4208" stop-color="#ECCA7B"/>
<stop offset="0.5549" stop-color="#ECC772"/>
<stop offset="1" stop-color="#E4CD80"/>
</linearGradient>
<linearGradient id="paint14_linear_32_308" x1="51.3982" y1="26.7673" x2="51.3982" y2="21.8823" gradientUnits="userSpaceOnUse">
<stop stop-color="#EFDCB2"/>
<stop offset="0.1951" stop-color="#EDD296"/>
<stop offset="0.4208" stop-color="#ECCA7B"/>
<stop offset="0.5549" stop-color="#ECC772"/>
<stop offset="1" stop-color="#E4CD80"/>
</linearGradient>
<linearGradient id="paint15_linear_32_308" x1="56.3223" y1="26.7673" x2="56.3223" y2="21.9693" gradientUnits="userSpaceOnUse">
<stop stop-color="#EFDCB2"/>
<stop offset="0.1951" stop-color="#EDD296"/>
<stop offset="0.4208" stop-color="#ECCA7B"/>
<stop offset="0.5549" stop-color="#ECC772"/>
<stop offset="1" stop-color="#E4CD80"/>
</linearGradient>
<linearGradient id="paint16_linear_32_308" x1="63.4059" y1="26.7673" x2="63.4059" y2="21.8823" gradientUnits="userSpaceOnUse">
<stop stop-color="#EFDCB2"/>
<stop offset="0.1951" stop-color="#EDD296"/>
<stop offset="0.4208" stop-color="#ECCA7B"/>
<stop offset="0.5549" stop-color="#ECC772"/>
<stop offset="1" stop-color="#E4CD80"/>
</linearGradient>
<linearGradient id="paint17_linear_32_308" x1="68.6224" y1="26.7673" x2="68.6224" y2="21.9693" gradientUnits="userSpaceOnUse">
<stop stop-color="#EFDCB2"/>
<stop offset="0.1951" stop-color="#EDD296"/>
<stop offset="0.4208" stop-color="#ECCA7B"/>
<stop offset="0.5549" stop-color="#ECC772"/>
<stop offset="1" stop-color="#E4CD80"/>
</linearGradient>
<linearGradient id="paint18_linear_32_308" x1="75.9801" y1="26.6798" x2="75.9801" y2="21.8823" gradientUnits="userSpaceOnUse">
<stop stop-color="#EFDCB2"/>
<stop offset="0.1951" stop-color="#EDD296"/>
<stop offset="0.4208" stop-color="#ECCA7B"/>
<stop offset="0.5549" stop-color="#ECC772"/>
<stop offset="1" stop-color="#E4CD80"/>
</linearGradient>
<linearGradient id="paint19_linear_32_308" x1="77.3807" y1="28.8868" x2="77.3807" y2="27.1247" gradientUnits="userSpaceOnUse">
<stop stop-color="#EFDCB2"/>
<stop offset="0.1951" stop-color="#EDD296"/>
<stop offset="0.4208" stop-color="#ECCA7B"/>
<stop offset="0.5549" stop-color="#ECC772"/>
<stop offset="1" stop-color="#E4CD80"/>
</linearGradient>
<linearGradient id="paint20_linear_32_308" x1="81.2928" y1="26.6799" x2="81.2928" y2="21.8823" gradientUnits="userSpaceOnUse">
<stop stop-color="#EFDCB2"/>
<stop offset="0.1951" stop-color="#EDD296"/>
<stop offset="0.4208" stop-color="#ECCA7B"/>
<stop offset="0.5549" stop-color="#ECC772"/>
<stop offset="1" stop-color="#E4CD80"/>
</linearGradient>
<linearGradient id="paint21_linear_32_308" x1="86.8453" y1="26.7673" x2="86.8453" y2="21.9693" gradientUnits="userSpaceOnUse">
<stop stop-color="#EFDCB2"/>
<stop offset="0.1951" stop-color="#EDD296"/>
<stop offset="0.4208" stop-color="#ECCA7B"/>
<stop offset="0.5549" stop-color="#ECC772"/>
<stop offset="1" stop-color="#E4CD80"/>
</linearGradient>
<linearGradient id="paint22_linear_32_308" x1="91.8132" y1="26.7673" x2="91.8132" y2="21.8823" gradientUnits="userSpaceOnUse">
<stop stop-color="#EFDCB2"/>
<stop offset="0.1951" stop-color="#EDD296"/>
<stop offset="0.4208" stop-color="#ECCA7B"/>
<stop offset="0.5549" stop-color="#ECC772"/>
<stop offset="1" stop-color="#E4CD80"/>
</linearGradient>
<linearGradient id="paint23_linear_32_308" x1="91.5515" y1="21.3238" x2="91.5515" y2="20.5214" gradientUnits="userSpaceOnUse">
<stop stop-color="#EFDCB2"/>
<stop offset="0.1951" stop-color="#EDD296"/>
<stop offset="0.4208" stop-color="#ECCA7B"/>
<stop offset="0.5549" stop-color="#ECC772"/>
<stop offset="1" stop-color="#E4CD80"/>
</linearGradient>
<linearGradient id="paint24_linear_32_308" x1="96.6022" y1="26.6799" x2="96.6022" y2="21.8823" gradientUnits="userSpaceOnUse">
<stop stop-color="#EFDCB2"/>
<stop offset="0.1951" stop-color="#EDD296"/>
<stop offset="0.4208" stop-color="#ECCA7B"/>
<stop offset="0.5549" stop-color="#ECC772"/>
<stop offset="1" stop-color="#E4CD80"/>
</linearGradient>
<linearGradient id="paint25_linear_32_308" x1="101.116" y1="26.6798" x2="101.116" y2="21.8823" gradientUnits="userSpaceOnUse">
<stop stop-color="#EFDCB2"/>
<stop offset="0.1951" stop-color="#EDD296"/>
<stop offset="0.4208" stop-color="#ECCA7B"/>
<stop offset="0.5549" stop-color="#ECC772"/>
<stop offset="1" stop-color="#E4CD80"/>
</linearGradient>
<linearGradient id="paint26_linear_32_308" x1="105.482" y1="26.7673" x2="105.482" y2="21.8823" gradientUnits="userSpaceOnUse">
<stop stop-color="#EFDCB2"/>
<stop offset="0.1951" stop-color="#EDD296"/>
<stop offset="0.4208" stop-color="#ECCA7B"/>
<stop offset="0.5549" stop-color="#ECC772"/>
<stop offset="1" stop-color="#E4CD80"/>
</linearGradient>
<linearGradient id="paint27_linear_32_308" x1="109.107" y1="26.6798" x2="109.107" y2="21.9693" gradientUnits="userSpaceOnUse">
<stop stop-color="#EFDCB2"/>
<stop offset="0.1951" stop-color="#EDD296"/>
<stop offset="0.4208" stop-color="#ECCA7B"/>
<stop offset="0.5549" stop-color="#ECC772"/>
<stop offset="1" stop-color="#E4CD80"/>
</linearGradient>
<linearGradient id="paint28_linear_32_308" x1="112.539" y1="26.7673" x2="112.539" y2="21.8823" gradientUnits="userSpaceOnUse">
<stop stop-color="#EFDCB2"/>
<stop offset="0.1951" stop-color="#EDD296"/>
<stop offset="0.4208" stop-color="#ECCA7B"/>
<stop offset="0.5549" stop-color="#ECC772"/>
<stop offset="1" stop-color="#E4CD80"/>
</linearGradient>
<linearGradient id="paint29_linear_32_308" x1="112.278" y1="21.3238" x2="112.278" y2="19.8147" gradientUnits="userSpaceOnUse">
<stop stop-color="#EFDCB2"/>
<stop offset="0.1951" stop-color="#EDD296"/>
<stop offset="0.4208" stop-color="#ECCA7B"/>
<stop offset="0.5549" stop-color="#ECC772"/>
<stop offset="1" stop-color="#E4CD80"/>
</linearGradient>
<linearGradient id="paint30_linear_32_308" x1="113.661" y1="19.3524" x2="113.661" y2="18.1313" gradientUnits="userSpaceOnUse">
<stop stop-color="#EFDCB2"/>
<stop offset="0.1951" stop-color="#EDD296"/>
<stop offset="0.4208" stop-color="#ECCA7B"/>
<stop offset="0.5549" stop-color="#ECC772"/>
<stop offset="1" stop-color="#E4CD80"/>
</linearGradient>
<linearGradient id="paint31_linear_32_308" x1="117.228" y1="26.7673" x2="117.228" y2="21.8823" gradientUnits="userSpaceOnUse">
<stop stop-color="#EFDCB2"/>
<stop offset="0.1951" stop-color="#EDD296"/>
<stop offset="0.4208" stop-color="#ECCA7B"/>
<stop offset="0.5549" stop-color="#ECC772"/>
<stop offset="1" stop-color="#E4CD80"/>
</linearGradient>
<linearGradient id="paint32_linear_32_308" x1="121.965" y1="26.7673" x2="121.965" y2="21.9693" gradientUnits="userSpaceOnUse">
<stop stop-color="#EFDCB2"/>
<stop offset="0.1951" stop-color="#EDD296"/>
<stop offset="0.4208" stop-color="#ECCA7B"/>
<stop offset="0.5549" stop-color="#ECC772"/>
<stop offset="1" stop-color="#E4CD80"/>
</linearGradient>
<linearGradient id="paint33_linear_32_308" x1="126.985" y1="26.6798" x2="126.985" y2="21.8823" gradientUnits="userSpaceOnUse">
<stop stop-color="#EFDCB2"/>
<stop offset="0.1951" stop-color="#EDD296"/>
<stop offset="0.4208" stop-color="#ECCA7B"/>
<stop offset="0.5549" stop-color="#ECC772"/>
<stop offset="1" stop-color="#E4CD80"/>
</linearGradient>
<linearGradient id="paint34_linear_32_308" x1="132.197" y1="26.7673" x2="132.197" y2="21.8823" gradientUnits="userSpaceOnUse">
<stop stop-color="#EFDCB2"/>
<stop offset="0.1951" stop-color="#EDD296"/>
<stop offset="0.4208" stop-color="#ECCA7B"/>
<stop offset="0.5549" stop-color="#ECC772"/>
<stop offset="1" stop-color="#E4CD80"/>
</linearGradient>
<linearGradient id="paint35_linear_32_308" x1="136.934" y1="26.7673" x2="136.934" y2="21.9693" gradientUnits="userSpaceOnUse">
<stop stop-color="#EFDCB2"/>
<stop offset="0.1951" stop-color="#EDD296"/>
<stop offset="0.4208" stop-color="#ECCA7B"/>
<stop offset="0.5549" stop-color="#ECC772"/>
<stop offset="1" stop-color="#E4CD80"/>
</linearGradient>
<linearGradient id="paint36_linear_32_308" x1="141.998" y1="26.6799" x2="141.998" y2="21.8823" gradientUnits="userSpaceOnUse">
<stop stop-color="#EFDCB2"/>
<stop offset="0.1951" stop-color="#EDD296"/>
<stop offset="0.4208" stop-color="#ECCA7B"/>
<stop offset="0.5549" stop-color="#ECC772"/>
<stop offset="1" stop-color="#E4CD80"/>
</linearGradient>
<linearGradient id="paint37_linear_32_308" x1="143.646" y1="21.4723" x2="143.646" y2="19.4572" gradientUnits="userSpaceOnUse">
<stop stop-color="#EFDCB2"/>
<stop offset="0.1951" stop-color="#EDD296"/>
<stop offset="0.4208" stop-color="#ECCA7B"/>
<stop offset="0.5549" stop-color="#ECC772"/>
<stop offset="1" stop-color="#E4CD80"/>
</linearGradient>
<linearGradient id="paint38_linear_32_308" x1="146.451" y1="26.6798" x2="146.451" y2="21.8823" gradientUnits="userSpaceOnUse">
<stop stop-color="#EFDCB2"/>
<stop offset="0.1951" stop-color="#EDD296"/>
<stop offset="0.4208" stop-color="#ECCA7B"/>
<stop offset="0.5549" stop-color="#ECC772"/>
<stop offset="1" stop-color="#E4CD80"/>
</linearGradient>
</defs>
</svg>
