<?xml version="1.0" encoding="utf-8"?>
<!-- Generator: Adobe Illustrator 28.4.1, SVG Export Plug-In . SVG Version: 6.00 Build 0)  -->
<svg version="1.1" id="Layer_1" xmlns="http://www.w3.org/2000/svg" xmlns:xlink="http://www.w3.org/1999/xlink" x="0px" y="0px"
	 viewBox="0 0 36 32" style="enable-background:new 0 0 36 32;" xml:space="preserve">
<style type="text/css">
	.st0{fill:url(#SVGID_1_);}
	.st1{fill:url(#SVGID_00000007422712653899692140000005215956114565578625_);}
	.st2{fill:url(#SVGID_00000056387048049796256840000011986525554512494220_);}
</style>
<linearGradient id="SVGID_1_" gradientUnits="userSpaceOnUse" x1="33.3963" y1="34.5135" x2="-8.659" y2="-1.6665" gradientTransform="matrix(1 0 0 -1 0 34)">
	<stop  offset="0" style="stop-color:#EFDCB2"/>
	<stop  offset="6.840000e-02" style="stop-color:#EEDBAE"/>
	<stop  offset="0.1198" style="stop-color:#EED7A5"/>
	<stop  offset="0.1658" style="stop-color:#EDD295"/>
	<stop  offset="0.2083" style="stop-color:#ECCB7E"/>
	<stop  offset="0.2269" style="stop-color:#ECC772"/>
	<stop  offset="0.3" style="stop-color:#ECC976"/>
	<stop  offset="0.3754" style="stop-color:#EFCE82"/>
	<stop  offset="0.4517" style="stop-color:#F4D897"/>
	<stop  offset="0.5147" style="stop-color:#F9E4AE"/>
	<stop  offset="0.5536" style="stop-color:#F5DFA7"/>
	<stop  offset="0.6083" style="stop-color:#EAD195"/>
	<stop  offset="0.6719" style="stop-color:#D9BC77"/>
	<stop  offset="0.7183" style="stop-color:#CAA95D"/>
	<stop  offset="0.7487" style="stop-color:#D5B86C"/>
	<stop  offset="0.7885" style="stop-color:#DDC477"/>
	<stop  offset="0.8445" style="stop-color:#E2CB7E"/>
	<stop  offset="1" style="stop-color:#E4CD80"/>
</linearGradient>
<path class="st0" d="M20.7,0c0.1,0,0.1,0,0.2,0.1c1.2,0.7,2.3,1.4,3.5,2.1c0.1,0.1,0.1,0.1,0.1,0.2c0,4.8,0,9.6,0,14.4
	c0,2.5,0,5.1,0,7.6c0,0.1,0,0.2-0.2,0.3c-3.3,1.9-6.5,3.9-9.8,5.8c-0.8,0.5-1.6,0.9-2.4,1.4c-0.1,0.1-0.2,0.1-0.2,0
	c-0.7-0.4-1.4-0.8-2.1-1.3c-3.3-2-6.5-3.9-9.8-5.9c0,0-0.1,0-0.1-0.1c-0.1,0-0.1-0.1-0.1-0.2c0-2.5,0-5.1,0-7.6c0-1.9,0-3.8,0-5.7
	c0,0,0-0.1,0-0.1c0-0.2,0-0.3,0.2-0.3c1.1-0.7,2.2-1.3,3.3-2c0,0,0.1-0.1,0.2-0.1c0,0.1,0,0.1,0,0.2c0,3.2,0,6.3,0,9.5
	c0,1.6,0,3.2,0,4.9c0,0.1,0,0.2,0.1,0.2c2.8,1.6,5.5,3.3,8.3,4.9c0.1,0.1,0.2,0.1,0.3,0c2.8-1.6,5.5-3.2,8.3-4.9
	c0.1-0.1,0.1-0.1,0.1-0.2c0-2,0-4.1,0-6.1c0-5.7,0-11.4,0.1-17C20.7,0.1,20.7,0,20.7,0z"/>
<linearGradient id="SVGID_00000059295638889580391210000011801006253443930806_" gradientUnits="userSpaceOnUse" x1="42.1338" y1="24.0147" x2="3.539729e-02" y2="-12.2024" gradientTransform="matrix(1 0 0 -1 0 34)">
	<stop  offset="0" style="stop-color:#EFDCB2"/>
	<stop  offset="6.840000e-02" style="stop-color:#EEDBAE"/>
	<stop  offset="0.1198" style="stop-color:#EED7A5"/>
	<stop  offset="0.1658" style="stop-color:#EDD295"/>
	<stop  offset="0.2083" style="stop-color:#ECCB7E"/>
	<stop  offset="0.2269" style="stop-color:#ECC772"/>
	<stop  offset="0.3" style="stop-color:#ECC976"/>
	<stop  offset="0.3754" style="stop-color:#EFCE82"/>
	<stop  offset="0.4517" style="stop-color:#F4D897"/>
	<stop  offset="0.5147" style="stop-color:#F9E4AE"/>
	<stop  offset="0.5536" style="stop-color:#F5DFA7"/>
	<stop  offset="0.6083" style="stop-color:#EAD195"/>
	<stop  offset="0.6719" style="stop-color:#D9BC77"/>
	<stop  offset="0.7183" style="stop-color:#CAA95D"/>
	<stop  offset="0.7487" style="stop-color:#D5B86C"/>
	<stop  offset="0.7885" style="stop-color:#DDC477"/>
	<stop  offset="0.8445" style="stop-color:#E2CB7E"/>
	<stop  offset="1" style="stop-color:#E4CD80"/>
</linearGradient>
<path style="fill:url(#SVGID_00000059295638889580391210000011801006253443930806_);" d="M19,28.7c0,0,0.1-0.1,0.1-0.1
	c1.1-0.7,2.3-1.3,3.4-2c0.1-0.1,0.1-0.1,0.2,0c0.4,0.3,0.8,0.5,1.2,0.7c0.1,0,0.1,0,0.2,0c0.5-0.3,1.1-0.6,1.6-1
	c2.2-1.4,4.5-2.7,6.7-4.1c0.1-0.1,0.2-0.1,0.2-0.3c0-4.4,0-8.8,0-13.2c0-0.1,0-0.1,0-0.2c0.1,0,0.1,0,0.1,0.1
	c1.2,0.7,2.3,1.4,3.5,2.1c0.1,0.1,0.1,0.1,0.1,0.2c0,4.5,0,9,0,13.5c0,0.1-0.1,0.2-0.1,0.2c-3.2,1.9-6.5,3.8-9.7,5.8
	c-0.7,0.4-1.5,0.9-2.2,1.3c-0.1,0.1-0.1,0-0.2,0c-0.6-0.4-1.2-0.8-1.9-1.1C21.1,30,20.1,29.4,19,28.7C19.1,28.8,19,28.8,19,28.7z"/>
<linearGradient id="SVGID_00000065765347016466353890000007237590965573576375_" gradientUnits="userSpaceOnUse" x1="32.5803" y1="35.9362" x2="-10.0305" y2="-0.7216" gradientTransform="matrix(1 0 0 -1 0 34)">
	<stop  offset="0" style="stop-color:#EFDCB2"/>
	<stop  offset="6.840000e-02" style="stop-color:#EEDBAE"/>
	<stop  offset="0.1198" style="stop-color:#EED7A5"/>
	<stop  offset="0.1658" style="stop-color:#EDD295"/>
	<stop  offset="0.2083" style="stop-color:#ECCB7E"/>
	<stop  offset="0.2269" style="stop-color:#ECC772"/>
	<stop  offset="0.3" style="stop-color:#ECC976"/>
	<stop  offset="0.3754" style="stop-color:#EFCE82"/>
	<stop  offset="0.4517" style="stop-color:#F4D897"/>
	<stop  offset="0.5147" style="stop-color:#F9E4AE"/>
	<stop  offset="0.5536" style="stop-color:#F5DFA7"/>
	<stop  offset="0.6083" style="stop-color:#EAD195"/>
	<stop  offset="0.6719" style="stop-color:#D9BC77"/>
	<stop  offset="0.7183" style="stop-color:#CAA95D"/>
	<stop  offset="0.7487" style="stop-color:#D5B86C"/>
	<stop  offset="0.7885" style="stop-color:#DDC477"/>
	<stop  offset="0.8445" style="stop-color:#E2CB7E"/>
	<stop  offset="1" style="stop-color:#E4CD80"/>
</linearGradient>
<path style="fill:url(#SVGID_00000065765347016466353890000007237590965573576375_);" d="M18.3,24c0,0-0.1,0.1-0.1,0.1
	c-1.1,0.7-2.2,1.3-3.3,2c-0.1,0.1-0.2,0.1-0.3,0c-0.9-0.6-1.8-1.1-2.7-1.7c-0.1-0.1-0.1-0.1-0.1-0.2c0-5.9,0-11.8,0-17.7
	c0-1.3,0-2.6,0-3.9c0-0.2,0-0.3,0.2-0.4c1.1-0.7,2.3-1.4,3.4-2.1c0,0,0.1-0.1,0.1-0.1c0,0,0,0.1,0,0.1c0,3,0,6.1,0,9.1
	c0,3.6,0,7.1,0,10.7c0,0.7,0,1.5,0,2.2c0,0.1,0,0.2,0.1,0.2c0.8,0.5,1.7,1,2.5,1.5C18.2,24,18.2,24,18.3,24z"/>
</svg>
