<svg width="32" height="32" viewBox="0 0 32 32" fill="none" xmlns="http://www.w3.org/2000/svg">
<g clip-path="url(#clip0_2009_677)">
<path fill-rule="evenodd" clip-rule="evenodd" d="M20.9898 23.3066H12.2656C11.7654 23.3066 11.3594 22.8452 11.3594 22.2768C11.3594 21.7083 11.7654 21.2469 12.2656 21.2469H20.9898C21.49 21.2469 21.896 21.7083 21.896 22.2768C21.896 22.8452 21.49 23.3066 20.9898 23.3066" fill="#007B5C"/>
<path fill-rule="evenodd" clip-rule="evenodd" d="M20.9898 17.5582H12.2656C11.7654 17.5582 11.3594 17.0968 11.3594 16.5284C11.3594 15.9599 11.7654 15.4985 12.2656 15.4985H20.9898C21.49 15.4985 21.896 15.9599 21.896 16.5284C21.896 17.0968 21.49 17.5582 20.9898 17.5582" fill="#007B5C"/>
<path fill-rule="evenodd" clip-rule="evenodd" d="M15.5946 11.823H12.2656C11.7654 11.823 11.3594 11.3616 11.3594 10.7931C11.3594 10.2247 11.7654 9.76331 12.2656 9.76331H15.5946C16.0948 9.76331 16.5008 10.2247 16.5008 10.7931C16.5008 11.3616 16.0948 11.823 15.5946 11.823" fill="#007B5C"/>
<mask id="mask0_2009_677" style="mask-type:luminance" maskUnits="userSpaceOnUse" x="5" y="2" width="23" height="29">
<path fill-rule="evenodd" clip-rule="evenodd" d="M5.625 2.74646H27.574V30.0847H5.625V2.74646Z" fill="white"/>
</mask>
<g mask="url(#mask0_2009_677)">
<path fill-rule="evenodd" clip-rule="evenodd" d="M21.2229 4.80587L11.932 4.81137C9.11901 4.83059 7.43701 6.80786 7.43701 10.1019V22.729C7.43701 26.0451 9.13472 28.0251 11.9755 28.0251L21.2664 28.021C24.0794 28.0018 25.7614 26.0217 25.7614 22.729V10.1019C25.7614 6.78589 24.0649 4.80587 21.2229 4.80587ZM11.9767 30.0848C8.17772 30.0848 5.62451 27.1285 5.62451 22.729V10.1019C5.62451 5.66269 8.09797 2.7778 11.926 2.75171L21.2217 2.74622H21.2229C25.0219 2.74622 27.5739 5.70251 27.5739 10.1019V22.729C27.5739 27.1669 25.1004 30.0532 21.2724 30.0806L11.9767 30.0848Z" fill="#007B5C"/>
</g>
</g>
<defs>
<clipPath id="clip0_2009_677">
<rect width="32" height="32" fill="white"/>
</clipPath>
</defs>
</svg>
