<?xml version="1.0" encoding="utf-8"?>
<!-- Generator: Adobe Illustrator 28.4.1, SVG Export Plug-In . SVG Version: 6.00 Build 0)  -->
<svg version="1.1" id="Layer_1" xmlns="http://www.w3.org/2000/svg" xmlns:xlink="http://www.w3.org/1999/xlink" x="0px" y="0px"
	 viewBox="0 0 800 800" style="enable-background:new 0 0 800 800;" xml:space="preserve">
<style type="text/css">
	.st0{fill:#FFFFFF;}
</style>
<path class="st0" d="M390.4,0C616.6,0,800,179.1,800,400S616.6,800,390.4,800c-127.7,0-245.7-57.5-322.8-153.8
	c-9.1-11.4-7.1-27.8,4.6-36.7c11.7-8.9,28.5-6.9,37.6,4.5c67.1,83.8,169.6,133.7,280.6,133.7c196.6,0,356-155.7,356-347.7
	S587,52.3,390.4,52.3c-109.4,0-210.6,48.5-277.8,130.2c-9.3,11.3-26.1,13.1-37.7,4s-13.4-25.5-4.1-36.8C148.1,55.8,264.6,0,390.4,0z
	 M412.2,274.5l108.3,108.3c10.5,10.5,10.7,27.2,0.4,37.5L415.2,525.9c-10.2,10.2-27,10-37.5-0.4s-10.7-27.2-0.4-37.5l61.9-61.9
	l-412.4,0C12,426.2,0,414.5,0,400s12-26.2,26.8-26.2l410.7,0l-62.3-62.3c-10.5-10.5-10.7-27.2-0.4-37.5
	C385,263.8,401.7,264,412.2,274.5z"/>
</svg>
